{"asset":{"version":"2.0","generator":"Unity 6000.4.2f1 glTFast 6.18.0"},"nodes":[{"name":"Fir_Tree","mesh":0,"translation":[-52.39,0,55.31],"rotation":[2.18556941E-08,0,0,1],"scale":[2,2,2]},{"name":"Fir_Tree (3)","mesh":0,"translation":[-44.64,0,60.6],"rotation":[2.18556941E-08,0,0,1],"scale":[2,2,2]},{"name":"Fir_Tree (1)","mesh":0,"translation":[-62.7,0,87],"rotation":[2.18556941E-08,0,0,1],"scale":[2,2,2]},{"name":"Fir_Tree (4)","mesh":0,"translation":[-63.75,0,78.02],"rotation":[2.18556941E-08,0,0,1],"scale":[2,2,2]},{"name":"Fir_Tree (8)","mesh":0,"translation":[-47.37,0,86.91],"rotation":[2.18556941E-08,0,0,1],"scale":[2,2,2]},{"name":"Fir_Tree (5)","mesh":0,"translation":[-72.79,0,75.3],"rotation":[2.18556941E-08,0,0,1],"scale":[2,2,2]},{"name":"Fir_Tree (6)","mesh":0,"translation":[-72.79,0,65.5],"rotation":[2.18556941E-08,0,0,1],"scale":[2,2,2]},{"name":"Fir_Tree (7)","mesh":0,"translation":[-72.79,0,51.63],"rotation":[2.18556941E-08,0,0,1],"scale":[2,2,2]},{"name":"Fir_Tree (2)","mesh":0,"translation":[-60.2,0,60.87],"rotation":[2.18556941E-08,0,0,1],"scale":[2,2,2]},{"name":"Oak_Tree","mesh":1,"translation":[-45.3956566,0.00993647147,66.09401],"rotation":[2.18556941E-08,0,0,1]},{"name":"Oak_Tree (6)","mesh":1,"translation":[-38.3,0.01,64.15],"rotation":[2.18556941E-08,0,0,1],"scale":[2,2,2]},{"name":"Oak_Tree (9)","mesh":1,"translation":[-38.3,0,56.7],"rotation":[2.18556941E-08,0,0,1],"scale":[2,2,2]},{"name":"Oak_Tree (2)","mesh":1,"translation":[-54.74,0,59.7],"rotation":[2.18556941E-08,0,0,1],"scale":[2,2,2]},{"name":"Oak_Tree (4)","mesh":1,"translation":[-58.56,0,54.62],"rotation":[2.18556941E-08,0,0,1],"scale":[2,2,2]},{"name":"Oak_Tree (8)","mesh":1,"translation":[-56.62,0,48.03],"rotation":[2.18556941E-08,0,0,1],"scale":[2,2,2]},{"name":"Oak_Tree (1)","mesh":1,"translation":[-62.33,0.01,66.39],"rotation":[2.18556941E-08,0,0,1],"scale":[2,2,2]},{"name":"Oak_Tree (5)","mesh":1,"translation":[-64.1,0.01,70.87],"rotation":[2.18556941E-08,0,0,1],"scale":[2,2,2]},{"name":"Oak_Tree (7)","mesh":1,"translation":[-52.58,0.01,83.36],"rotation":[2.18556941E-08,0,0,1],"scale":[2,2,2]},{"name":"Oak_Tree (3)","mesh":1,"translation":[-48.42,0,78.5],"rotation":[2.18556941E-08,0,0,1],"scale":[2,2,2]},{"name":"Poplar_Tree","mesh":2,"translation":[-48.84,0,59.6],"rotation":[2.18556941E-08,0,0,1],"scale":[2,2,2]},{"name":"Poplar_Tree (9)","mesh":2,"translation":[-45.83,0,49.26],"rotation":[2.18556941E-08,0,0,1],"scale":[2,2,2]},{"name":"Terrain","translation":[8.4,0,0],"rotation":[NaN,NaN,NaN,NaN],"scale":[0.00340811326,0,0]},{"name":"Poplar_Tree (10)","mesh":2,"translation":[-40.1,0,51.7],"rotation":[2.18556941E-08,0,0,1],"scale":[2,2,2]},{"name":"Poplar_Tree (4)","mesh":2,"translation":[-42.4,0.01,69.04],"rotation":[2.18556941E-08,0,0,1],"scale":[2,2,2]},{"name":"Poplar_Tree (8)","mesh":2,"translation":[-45.1,0.01,79.13],"rotation":[2.18556941E-08,0,0,1],"scale":[2,2,2]},{"name":"Poplar_Tree (13)","mesh":2,"translation":[-37.71,0.01,80.87],"rotation":[2.18556941E-08,0,0,1],"scale":[2,2,2]},{"name":"Poplar_Tree (6)","mesh":2,"translation":[-31.68,0.01,70.44],"rotation":[2.18556941E-08,0,0,1],"scale":[2,2,2]},{"name":"Poplar_Tree (5)","mesh":2,"translation":[-41.1,0,74.6],"rotation":[2.18556941E-08,0,0,1],"scale":[2,2,2]},{"name":"Poplar_Tree (1)","mesh":2,"translation":[-56.9,0,80.75],"rotation":[2.18556941E-08,0,0,1],"scale":[2,2,2]},{"name":"Poplar_Tree (12)","mesh":2,"translation":[-64.59,0,83.47],"rotation":[2.18556941E-08,0,0,1],"scale":[2,2,2]},{"name":"Poplar_Tree (2)","mesh":2,"translation":[-62.8,-0.24,72.01],"rotation":[2.18556941E-08,0,0,1],"scale":[2,2,2]},{"name":"Poplar_Tree (14)","mesh":2,"translation":[-76.8,-0.2,82.8],"rotation":[2.18556941E-08,0,0,1],"scale":[2,2,2]},{"name":"Poplar_Tree (3)","mesh":2,"translation":[-65.97,-0.24,63.46],"rotation":[2.18556941E-08,0,0,1],"scale":[2,2,2]},{"name":"Poplar_Tree (7)","mesh":2,"translation":[-65.97,-0.2,51.1],"rotation":[2.18556941E-08,0,0,1],"scale":[2,2,2]},{"name":"Poplar_Tree (11)","mesh":2,"translation":[-68.4,-0.2,57.24],"rotation":[2.18556941E-08,0,0,1],"scale":[2,2,2]},{"name":"Dog","mesh":3,"translation":[-0.0108175725,-0.401584268,-0.0127682537]},{"name":"Elephant","mesh":4,"translation":[3.10638452,-0.847614467,-0.483361453]},{"name":"Giraffe","mesh":5,"translation":[1.11990488,-0.436801672,-0.0118438192]},{"name":"Lion","mesh":6,"translation":[-0.9883754,-0.362731874,1.45059216]},{"name":"Ostrich","mesh":7,"translation":[-1.7299403,-0.443305,-2.71683812]},{"name":"Horse.001","mesh":8,"translation":[-2.2566762,-0.6066373,-0.0198241584]},{"name":"Parrot","mesh":9,"translation":[2.19398737,-0.3163012,-2.242594]},{"name":"Pigeon","mesh":10,"translation":[0.000870669668,-0.3496862,-2.77647471]},{"name":"Racoon","mesh":11,"translation":[-1.06599641,-0.225872189,0.000376492739]},{"name":"Seagull","mesh":12,"translation":[-0.7871056,-0.390526175,-1.48438048]},{"name":"Sparrow","mesh":13,"translation":[-0.859593749,-0.267325848,-2.83860421]},{"name":"Tiger","mesh":14,"translation":[-0.00227908045,-0.368896872,1.28128207]},{"name":"Tit","mesh":15,"translation":[0.972600162,-0.281758666,-2.682812]},{"name":"Animals","children":[35,36,37,38,39,40,41,42,43,44,45,46,47],"translation":[-106,1.1,41.1]}],"buffers":[{"uri":"full-design.bin","byteLength":16094024}],"bufferViews":[{"buffer":0,"byteLength":5184,"target":34963},{"buffer":0,"byteLength":11802,"byteOffset":5184,"target":34963},{"buffer":0,"byteLength":10464,"byteOffset":16986,"target":34963},{"buffer":0,"byteLength":300000,"byteOffset":27450,"target":34963},{"buffer":0,"byteLength":300000,"byteOffset":327450,"target":34963},{"buffer":0,"byteLength":263316,"byteOffset":627450,"target":34963},{"buffer":0,"byteLength":299988,"byteOffset":890766,"target":34963},{"buffer":0,"byteLength":277896,"byteOffset":1190754,"target":34963},{"buffer":0,"byteLength":300000,"byteOffset":1468650,"target":34963},{"buffer":0,"byteLength":299988,"byteOffset":1768650,"target":34963},{"buffer":0,"byteLength":300000,"byteOffset":2068638,"target":34963},{"buffer":0,"byteLength":300000,"byteOffset":2368638,"target":34963},{"buffer":0,"byteLength":300000,"byteOffset":2668638,"target":34963},{"buffer":0,"byteLength":300000,"byteOffset":2968638,"target":34963},{"buffer":0,"byteLength":300000,"byteOffset":3268638,"target":34963},{"buffer":0,"byteLength":300000,"byteOffset":3568638,"target":34963},{"buffer":0,"byteLength":674592,"byteOffset":3868640,"byteStride":24,"target":34962},{"buffer":0,"byteLength":224864,"byteOffset":4543232,"byteStride":8,"target":34962},{"buffer":0,"byteLength":678744,"byteOffset":4768096,"byteStride":24,"target":34962},{"buffer":0,"byteLength":226248,"byteOffset":5446840,"byteStride":8,"target":34962},{"buffer":0,"byteLength":602568,"byteOffset":5673088,"byteStride":24,"target":34962},{"buffer":0,"byteLength":200856,"byteOffset":6275656,"byteStride":8,"target":34962},{"buffer":0,"byteLength":671352,"byteOffset":6476512,"byteStride":24,"target":34962},{"buffer":0,"byteLength":223784,"byteOffset":7147864,"byteStride":8,"target":34962},{"buffer":0,"byteLength":620208,"byteOffset":7371648,"byteStride":24,"target":34962},{"buffer":0,"byteLength":206736,"byteOffset":7991856,"byteStride":8,"target":34962},{"buffer":0,"byteLength":676488,"byteOffset":8198592,"byteStride":24,"target":34962},{"buffer":0,"byteLength":225496,"byteOffset":8875080,"byteStride":8,"target":34962},{"buffer":0,"byteLength":680520,"byteOffset":9100576,"byteStride":24,"target":34962},{"buffer":0,"byteLength":226840,"byteOffset":9781096,"byteStride":8,"target":34962},{"buffer":0,"byteLength":676272,"byteOffset":10007936,"byteStride":24,"target":34962},{"buffer":0,"byteLength":225424,"byteOffset":10684208,"byteStride":8,"target":34962},{"buffer":0,"byteLength":671304,"byteOffset":10909632,"byteStride":24,"target":34962},{"buffer":0,"byteLength":223768,"byteOffset":11580936,"byteStride":8,"target":34962},{"buffer":0,"byteLength":691944,"byteOffset":11804704,"byteStride":24,"target":34962},{"buffer":0,"byteLength":230648,"byteOffset":12496648,"byteStride":8,"target":34962},{"buffer":0,"byteLength":684480,"byteOffset":12727296,"byteStride":24,"target":34962},{"buffer":0,"byteLength":228160,"byteOffset":13411776,"byteStride":8,"target":34962},{"buffer":0,"byteLength":678432,"byteOffset":13639936,"byteStride":24,"target":34962},{"buffer":0,"byteLength":226144,"byteOffset":14318368,"byteStride":8,"target":34962},{"buffer":0,"byteLength":679512,"byteOffset":14544512,"byteStride":24,"target":34962},{"buffer":0,"byteLength":226504,"byteOffset":15224024,"byteStride":8,"target":34962},{"buffer":0,"byteLength":93856,"byteOffset":15450528,"byteStride":56,"target":34962},{"buffer":0,"byteLength":286720,"byteOffset":15544384,"byteStride":56,"target":34962},{"buffer":0,"byteLength":262920,"byteOffset":15831104,"byteStride":56,"target":34962}],"accessors":[{"bufferView":42,"componentType":5126,"count":1676,"type":"VEC3","max":[1.88581717,5.7132225,1.884923],"min":[-1.88573825,8.249283E-05,-1.88537455]},{"bufferView":42,"componentType":5126,"count":1676,"type":"VEC3","byteOffset":12},{"bufferView":42,"componentType":5126,"count":1676,"type":"VEC4","byteOffset":24},{"bufferView":42,"componentType":5126,"count":1676,"type":"VEC2","byteOffset":40},{"bufferView":42,"componentType":5126,"count":1676,"type":"VEC2","byteOffset":48},{"bufferView":0,"componentType":5123,"count":2592,"type":"SCALAR"},{"bufferView":43,"componentType":5126,"count":5120,"type":"VEC3","max":[1.93645024,5.304503,1.51450622],"min":[-2.01985574,-0.009936333,-1.3223964]},{"bufferView":43,"componentType":5126,"count":5120,"type":"VEC3","byteOffset":12},{"bufferView":43,"componentType":5126,"count":5120,"type":"VEC4","byteOffset":24},{"bufferView":43,"componentType":5126,"count":5120,"type":"VEC2","byteOffset":40},{"bufferView":43,"componentType":5126,"count":5120,"type":"VEC2","byteOffset":48},{"bufferView":1,"componentType":5123,"count":5901,"type":"SCALAR"},{"bufferView":44,"componentType":5126,"count":4695,"type":"VEC3","max":[1.30919385,5.81154156,1.47667646],"min":[-1.384867,-0.008084774,-1.4862318]},{"bufferView":44,"componentType":5126,"count":4695,"type":"VEC3","byteOffset":12},{"bufferView":44,"componentType":5126,"count":4695,"type":"VEC4","byteOffset":24},{"bufferView":44,"componentType":5126,"count":4695,"type":"VEC2","byteOffset":40},{"bufferView":44,"componentType":5126,"count":4695,"type":"VEC2","byteOffset":48},{"bufferView":2,"componentType":5123,"count":5232,"type":"SCALAR"},{"bufferView":16,"componentType":5126,"count":28108,"type":"VEC3","max":[0.369959056,0.792630434,0.23410742],"min":[-0.369959056,0,-0.23410742]},{"bufferView":16,"componentType":5126,"count":28108,"type":"VEC3","byteOffset":12},{"bufferView":17,"componentType":5126,"count":28108,"type":"VEC2"},{"bufferView":3,"componentType":5123,"count":150000,"type":"SCALAR"},{"bufferView":18,"componentType":5126,"count":28281,"type":"VEC3","max":[0.872413158,1.6737051,0.7153542],"min":[-0.872413158,0,-0.7153542]},{"bufferView":18,"componentType":5126,"count":28281,"type":"VEC3","byteOffset":12},{"bufferView":19,"componentType":5126,"count":28281,"type":"VEC2"},{"bufferView":4,"componentType":5123,"count":150000,"type":"SCALAR"},{"bufferView":20,"componentType":5126,"count":25107,"type":"VEC3","max":[0.497470766,1.77436066,0.356079072],"min":[-0.497470766,0,-0.356079072]},{"bufferView":20,"componentType":5126,"count":25107,"type":"VEC3","byteOffset":12},{"bufferView":21,"componentType":5126,"count":25107,"type":"VEC2"},{"bufferView":5,"componentType":5123,"count":131658,"type":"SCALAR"},{"bufferView":22,"componentType":5126,"count":27973,"type":"VEC3","max":[0.386950761,0.721379042,0.330568463],"min":[-0.386950821,0,-0.330568463]},{"bufferView":22,"componentType":5126,"count":27973,"type":"VEC3","byteOffset":12},{"bufferView":23,"componentType":5126,"count":27973,"type":"VEC2"},{"bufferView":6,"componentType":5123,"count":149994,"type":"SCALAR"},{"bufferView":24,"componentType":5126,"count":25842,"type":"VEC3","max":[0.424198,1.80656934,0.246864334],"min":[-0.424197942,0,-0.246864334]},{"bufferView":24,"componentType":5126,"count":25842,"type":"VEC3","byteOffset":12},{"bufferView":25,"componentType":5126,"count":25842,"type":"VEC2"},{"bufferView":7,"componentType":5123,"count":138948,"type":"SCALAR"},{"bufferView":26,"componentType":5126,"count":28187,"type":"VEC3","max":[0.5264542,1.18873036,0.356828719],"min":[-0.5264542,0,-0.356828719]},{"bufferView":26,"componentType":5126,"count":28187,"type":"VEC3","byteOffset":12},{"bufferView":27,"componentType":5126,"count":28187,"type":"VEC2"},{"bufferView":8,"componentType":5123,"count":150000,"type":"SCALAR"},{"bufferView":28,"componentType":5126,"count":28355,"type":"VEC3","max":[0.183030039,0.6148786,0.204410657],"min":[-0.183030039,0,-0.204410657]},{"bufferView":28,"componentType":5126,"count":28355,"type":"VEC3","byteOffset":12},{"bufferView":29,"componentType":5126,"count":28355,"type":"VEC2"},{"bufferView":9,"componentType":5123,"count":149994,"type":"SCALAR"},{"bufferView":30,"componentType":5126,"count":28178,"type":"VEC3","max":[0.258161962,0.7068153,0.2656466],"min":[-0.258161962,0,-0.2656466]},{"bufferView":30,"componentType":5126,"count":28178,"type":"VEC3","byteOffset":12},{"bufferView":31,"componentType":5126,"count":28178,"type":"VEC2"},{"bufferView":10,"componentType":5123,"count":150000,"type":"SCALAR"},{"bufferView":32,"componentType":5126,"count":27971,"type":"VEC3","max":[0.49894,0.4551415,0.170904309],"min":[-0.49894,0,-0.170904309]},{"bufferView":32,"componentType":5126,"count":27971,"type":"VEC3","byteOffset":12},{"bufferView":33,"componentType":5126,"count":27971,"type":"VEC2"},{"bufferView":11,"componentType":5123,"count":150000,"type":"SCALAR"},{"bufferView":34,"componentType":5126,"count":28831,"type":"VEC3","max":[0.2878288,0.7737607,0.229705229],"min":[-0.2878288,0,-0.229705229]},{"bufferView":34,"componentType":5126,"count":28831,"type":"VEC3","byteOffset":12},{"bufferView":35,"componentType":5126,"count":28831,"type":"VEC2"},{"bufferView":12,"componentType":5123,"count":150000,"type":"SCALAR"},{"bufferView":36,"componentType":5126,"count":28520,"type":"VEC3","max":[0.180889025,0.5298907,0.203367412],"min":[-0.180889025,0,-0.203367412]},{"bufferView":36,"componentType":5126,"count":28520,"type":"VEC3","byteOffset":12},{"bufferView":37,"componentType":5126,"count":28520,"type":"VEC2"},{"bufferView":13,"componentType":5123,"count":150000,"type":"SCALAR"},{"bufferView":38,"componentType":5126,"count":28268,"type":"VEC3","max":[0.4216152,0.7291248,0.247625247],"min":[-0.421615273,0,-0.247625247]},{"bufferView":38,"componentType":5126,"count":28268,"type":"VEC3","byteOffset":12},{"bufferView":39,"componentType":5126,"count":28268,"type":"VEC2"},{"bufferView":14,"componentType":5123,"count":150000,"type":"SCALAR"},{"bufferView":40,"componentType":5126,"count":28313,"type":"VEC3","max":[0.160991058,0.5629905,0.214219347],"min":[-0.160991058,0,-0.214219347]},{"bufferView":40,"componentType":5126,"count":28313,"type":"VEC3","byteOffset":12},{"bufferView":41,"componentType":5126,"count":28313,"type":"VEC2"},{"bufferView":15,"componentType":5123,"count":150000,"type":"SCALAR"}],"images":[{"name":"tree_diffuse.jpg","uri":"tree_diffuse.jpg","mimeType":"image/jpeg"},{"name":"Animals.jpg","uri":"Animals.jpg","mimeType":"image/jpeg"},{"name":"Animals.jpg","uri":"Animals_0.jpg","mimeType":"image/jpeg"},{"name":"Animals.jpg","uri":"Animals_1.jpg","mimeType":"image/jpeg"},{"name":"Animals.jpg","uri":"Animals_2.jpg","mimeType":"image/jpeg"},{"name":"Animals.jpg","uri":"Animals_3.jpg","mimeType":"image/jpeg"},{"name":"Animals.jpg","uri":"Animals_4.jpg","mimeType":"image/jpeg"},{"name":"Animals.jpg","uri":"Animals_5.jpg","mimeType":"image/jpeg"},{"name":"Animals.jpg","uri":"Animals_6.jpg","mimeType":"image/jpeg"},{"name":"Animals.jpg","uri":"Animals_7.jpg","mimeType":"image/jpeg"},{"name":"Animals.jpg","uri":"Animals_8.jpg","mimeType":"image/jpeg"},{"name":"Animals.jpg","uri":"Animals_9.jpg","mimeType":"image/jpeg"},{"name":"Animals.jpg","uri":"Animals_10.jpg","mimeType":"image/jpeg"},{"name":"Animals.jpg","uri":"Animals_11.jpg","mimeType":"image/jpeg"}],"materials":[{"name":"tree_diffuse","pbrMetallicRoughness":{"metallicFactor":0,"roughnessFactor":0.5,"baseColorTexture":{"index":0}}},{"name":"Material_0.001","pbrMetallicRoughness":{"metallicFactor":0,"roughnessFactor":0.9,"baseColorTexture":{"index":1}}},{"name":"Material_0.002","pbrMetallicRoughness":{"metallicFactor":0,"roughnessFactor":0.9,"baseColorTexture":{"index":2}}},{"name":"Material_0.003","pbrMetallicRoughness":{"metallicFactor":0,"roughnessFactor":0.9,"baseColorTexture":{"index":3}}},{"name":"Material_0.005","pbrMetallicRoughness":{"metallicFactor":0,"roughnessFactor":0.9,"baseColorTexture":{"index":4}}},{"name":"Material_0.006","pbrMetallicRoughness":{"metallicFactor":0,"roughnessFactor":0.9,"baseColorTexture":{"index":5}}},{"name":"Material_0.007","pbrMetallicRoughness":{"metallicFactor":0,"roughnessFactor":0.9,"baseColorTexture":{"index":6}}},{"name":"Material_0.008","pbrMetallicRoughness":{"metallicFactor":0,"roughnessFactor":0.9,"baseColorTexture":{"index":7}}},{"name":"Material_0.011","pbrMetallicRoughness":{"metallicFactor":0,"roughnessFactor":0.9,"baseColorTexture":{"index":8}}},{"name":"Material_0.012","pbrMetallicRoughness":{"metallicFactor":0,"roughnessFactor":0.9,"baseColorTexture":{"index":9}}},{"name":"Material_0.013","pbrMetallicRoughness":{"metallicFactor":0,"roughnessFactor":0.9,"baseColorTexture":{"index":10}}},{"name":"Material_0.014","pbrMetallicRoughness":{"metallicFactor":0,"roughnessFactor":0.9,"baseColorTexture":{"index":11}}},{"name":"Material_0.015","pbrMetallicRoughness":{"metallicFactor":0,"roughnessFactor":0.9,"baseColorTexture":{"index":12}}},{"name":"Material_0.016","pbrMetallicRoughness":{"metallicFactor":0,"roughnessFactor":0.9,"baseColorTexture":{"index":13}}}],"meshes":[{"name":"Fir-tree","primitives":[{"attributes":{"POSITION":0,"NORMAL":1,"TANGENT":2,"TEXCOORD_0":3,"TEXCOORD_1":4},"indices":5,"material":0}]},{"name":"Oak","primitives":[{"attributes":{"POSITION":6,"NORMAL":7,"TANGENT":8,"TEXCOORD_0":9,"TEXCOORD_1":10},"indices":11,"material":0}]},{"name":"Poplar","primitives":[{"attributes":{"POSITION":12,"NORMAL":13,"TANGENT":14,"TEXCOORD_0":15,"TEXCOORD_1":16},"indices":17,"material":0}]},{"name":"geometry_0.001","primitives":[{"attributes":{"POSITION":18,"NORMAL":19,"TEXCOORD_0":20},"indices":21,"material":1}]},{"name":"geometry_0.002","primitives":[{"attributes":{"POSITION":22,"NORMAL":23,"TEXCOORD_0":24},"indices":25,"material":2}]},{"name":"geometry_0.003","primitives":[{"attributes":{"POSITION":26,"NORMAL":27,"TEXCOORD_0":28},"indices":29,"material":3}]},{"name":"geometry_0.005","primitives":[{"attributes":{"POSITION":30,"NORMAL":31,"TEXCOORD_0":32},"indices":33,"material":4}]},{"name":"geometry_0.006","primitives":[{"attributes":{"POSITION":34,"NORMAL":35,"TEXCOORD_0":36},"indices":37,"material":5}]},{"name":"geometry_0.007","primitives":[{"attributes":{"POSITION":38,"NORMAL":39,"TEXCOORD_0":40},"indices":41,"material":6}]},{"name":"geometry_0.008","primitives":[{"attributes":{"POSITION":42,"NORMAL":43,"TEXCOORD_0":44},"indices":45,"material":7}]},{"name":"geometry_0.011","primitives":[{"attributes":{"POSITION":46,"NORMAL":47,"TEXCOORD_0":48},"indices":49,"material":8}]},{"name":"geometry_0.012","primitives":[{"attributes":{"POSITION":50,"NORMAL":51,"TEXCOORD_0":52},"indices":53,"material":9}]},{"name":"geometry_0.013","primitives":[{"attributes":{"POSITION":54,"NORMAL":55,"TEXCOORD_0":56},"indices":57,"material":10}]},{"name":"geometry_0.014","primitives":[{"attributes":{"POSITION":58,"NORMAL":59,"TEXCOORD_0":60},"indices":61,"material":11}]},{"name":"geometry_0.015","primitives":[{"attributes":{"POSITION":62,"NORMAL":63,"TEXCOORD_0":64},"indices":65,"material":12}]},{"name":"geometry_0.016","primitives":[{"attributes":{"POSITION":66,"NORMAL":67,"TEXCOORD_0":68},"indices":69,"material":13}]}],"samplers":[{"wrapS":33071,"wrapT":33071}],"scene":0,"scenes":[{"name":"full-design","nodes":[0,1,2,3,4,5,6,7,8,9,10,11,12,13,14,15,16,17,18,19,20,21,22,23,24,25,26,27,28,29,30,31,32,33,34,48]}],"textures":[{"source":0,"sampler":0},{"source":1},{"source":2},{"source":3},{"source":4},{"source":5},{"source":6},{"source":7},{"source":8},{"source":9},{"source":10},{"source":11},{"source":12},{"source":13}]}